<?xml version="1.0" encoding="UTF-8" standalone="no"?>
<svg
   xmlns:dc="http://purl.org/dc/elements/1.1/"
   xmlns:cc="http://creativecommons.org/ns#"
   xmlns:rdf="http://www.w3.org/1999/02/22-rdf-syntax-ns#"
   xmlns:svg="http://www.w3.org/2000/svg"
   xmlns="http://www.w3.org/2000/svg"
   viewBox="0 0 666.66669 666.66669"
   height="666.66669"
   width="666.66669"
   xml:space="preserve"
   id="svg2"
   version="1.1"><metadata
     id="metadata8"><rdf:RDF><cc:Work
         rdf:about=""><dc:format>image/svg+xml</dc:format><dc:type
           rdf:resource="http://purl.org/dc/dcmitype/StillImage" /></cc:Work></rdf:RDF></metadata><defs
     id="defs6"><clipPath
       id="clipPath20"
       clipPathUnits="userSpaceOnUse"><path
         id="path18"
         d="M 0,0 H 500 V 500 H 0 Z" /></clipPath><clipPath
       id="clipPath24"
       clipPathUnits="userSpaceOnUse"><path
         id="path22"
         d="M 0,0 H 500 V 500 H 0 Z" /></clipPath><clipPath
       id="clipPath28"
       clipPathUnits="userSpaceOnUse"><path
         id="path26"
         d="M 0,0 H 500 V 500 H 0 Z" /></clipPath><clipPath
       id="clipPath32"
       clipPathUnits="userSpaceOnUse"><path
         style="clip-rule:evenodd"
         id="path30"
         d="M 0,449.5659 C 0,477.4199 22.58014,500 50.43415,500 H 449.5659 C 477.4199,500 500,477.4199 500,449.5659 V 50.43415 C 500,22.58014 477.4199,0 449.5659,0 H 50.43415 C 22.58014,0 0,22.58014 0,50.43415 c 0,0 0,399.13175 0,399.13175 z" /></clipPath><clipPath
       id="clipPath36"
       clipPathUnits="userSpaceOnUse"><path
         id="path34"
         d="M 0,0 H 500 V 500 H 0 Z" /></clipPath></defs><g
     transform="matrix(1.3333333,0,0,-1.3333333,0,666.66667)"
     id="g10"><g
       id="g12" /><g
       id="g14"><g
         id="g16" /><g
         id="g80"><g
           id="g78"
           clip-path="url(#clipPath20)"><g
             id="g38" /><g
             id="g76"><g
               id="g74"
               clip-path="url(#clipPath24)"><g
                 id="g40" /><g
                 id="g56"><g
                   id="g54"
                   clip-path="url(#clipPath28)"><g
                     id="g42" /><g
                     id="g52"><g
                       id="g50"
                       clip-path="url(#clipPath32)"><g
                         id="g48"
                         clip-path="url(#clipPath36)"><g
                           id="g46"
                           transform="matrix(1,0,0,-1,0,500)"><path
                             id="path44"
                             style="fill:none;stroke:#075c81;stroke-width:16.36318016;stroke-linecap:round;stroke-linejoin:round;stroke-miterlimit:10;stroke-dasharray:none;stroke-opacity:1"
                             d="M 0,50.43415 C 0,22.58014 22.58014,0 50.43415,0 H 449.5659 C 477.4199,0 500,22.58014 500,50.43415 V 449.5659 C 500,477.4199 477.4199,500 449.5659,500 H 50.43415 C 22.58014,500 0,477.4199 0,449.5659 c 0,0 0,-399.13175 0,-399.13175 z" /></g></g></g></g></g></g><g
                 id="g60"
                 transform="matrix(1,0,0,-1,0,500)"><path
                   id="path58"
                   style="fill:none;stroke:#0a5a8a;stroke-width:8.18159008;stroke-linecap:butt;stroke-linejoin:round;stroke-miterlimit:10;stroke-dasharray:none;stroke-opacity:1"
                   d="m 120.344,237.6973 39.868,-89.9968" /></g><g
                 id="g64"
                 transform="matrix(1,0,0,-1,0,500)"><path
                   id="path62"
                   style="fill:none;stroke:#075c81;stroke-width:8.18159008;stroke-linecap:butt;stroke-linejoin:round;stroke-miterlimit:10;stroke-dasharray:none;stroke-opacity:1"
                   d="M 132.4477,330.9655 228.402,110.7317" /></g><g
                 id="g68"
                 transform="matrix(1,0,0,-1,0,500)"><path
                   id="path66"
                   style="fill:none;stroke:#075c81;stroke-width:8.18159008;stroke-linecap:butt;stroke-linejoin:round;stroke-miterlimit:10;stroke-dasharray:none;stroke-opacity:1"
                   d="M 294.7621,111.9188 182.4104,371.1702" /></g><g
                 id="g72"
                 transform="matrix(1,0,0,-1,0,500)"><path
                   id="path70"
                   style="fill:none;stroke:#075c81;stroke-width:8.18159008;stroke-linecap:butt;stroke-linejoin:round;stroke-miterlimit:10;stroke-dasharray:none;stroke-opacity:1"
                   d="m 344.2494,143.7564 c 0,0 76.0167,61.8733 37.2073,160.3335 -38.8095,98.4603 -145.063,88.0899 -145.063,88.0899" /></g></g></g></g></g></g></g></svg>